<svg width="100" height="100" viewBox="0 0 100 100" fill="none" xmlns="http://www.w3.org/2000/svg">
<circle cx="50" cy="50" r="50" fill="#01565B"/>
<path d="M51.758 57.9197C52.718 58.123 53.4253 58.2246 54.1074 58.4025C58.882 59.6733 62.1155 63.8922 62.1408 68.8227C62.1408 70.1697 62.166 71.5421 62.1408 72.8891C62.0903 75.2527 60.3977 76.9555 58.0483 76.9809C52.6927 77.0064 47.3624 77.0064 42.0068 76.9809C39.6574 76.9809 37.9143 75.2527 37.9143 72.8891C37.9143 70.8559 37.8386 68.7973 38.167 66.8149C38.8996 62.2148 42.5626 58.8092 47.1856 58.1484C47.4887 58.0976 47.7919 57.9959 48.2213 57.8942C43.9015 55.9627 41.9816 52.7858 42.7647 49.0244C43.4973 45.5679 46.4782 43.1281 50.0149 43.1281C53.6022 43.1281 56.7094 45.6188 57.2904 49.1261C57.7957 52.125 56.9115 55.9627 51.758 57.9197Z" fill="white"/>
<path d="M35.2365 72.9145C32.2051 72.9145 29.4262 73.0162 26.6727 72.8891C24.9801 72.8129 23.6159 71.7709 23.3128 70.0935C22.6055 66.0271 22.9086 62.1386 26.2179 59.1142C27.7589 57.6909 29.5273 56.9793 31.9019 56.6743C30.942 55.7848 29.6283 54.8699 28.6936 53.6499C27.7084 52.3792 27.5568 50.778 27.9863 49.1769C28.7189 46.3558 31.1188 44.4497 33.9734 44.5005C36.7775 44.5513 39.1522 46.5337 39.809 49.3802C40.4911 52.3283 39.0006 54.819 35.6407 56.4964C37.0807 56.9285 38.6469 57.4368 40.5921 58.0213C35.6155 62.0369 34.7566 67.1961 35.2365 72.9145Z" fill="white"/>
<path d="M67.5721 56.5727C72.1951 57.081 75.4287 59.2412 76.5402 63.6889C77.0202 65.595 76.9444 67.7044 76.7676 69.7122C76.616 71.4913 75.075 72.8129 73.3319 72.8891C70.5783 72.9908 67.7995 72.9145 64.8186 72.9145C65.1722 67.2978 64.5154 62.0623 59.4125 58.0467C61.3576 57.4368 62.9492 56.9285 64.3891 56.471C60.9535 54.7682 59.5135 52.2521 60.2966 49.1261C61.0292 46.2542 63.5049 44.3734 66.4101 44.4751C69.2394 44.5768 71.6394 46.737 72.1446 49.6344C72.7004 52.5317 71.0078 55.1748 67.5721 56.5727Z" fill="white"/>
<path d="M43.952 33.2925C44.3815 31.8438 43.7499 30.5222 42.6636 29.3531C42.2594 28.9211 41.9058 28.4382 41.5774 27.9553C40.8953 26.8879 41.1984 25.668 42.3857 25.4392C45.2656 24.9055 47.2866 23.4314 48.676 20.8391C49.2823 19.6954 50.7223 19.7208 51.3538 20.9154C52.6927 23.4314 54.6379 24.8801 57.442 25.3884C58.8314 25.6426 59.1346 26.8625 58.3767 28.0316C58.2757 28.1841 58.1999 28.3111 58.0736 28.4382C56.2799 30.1664 55.7242 32.2505 56.0021 34.7411C56.2294 36.7489 55.0926 37.5876 53.2737 36.7235C51.0254 35.6815 48.9539 35.6561 46.7056 36.6981C44.8867 37.5368 43.9015 36.7489 43.9015 34.7411C43.952 34.3345 43.952 33.9024 43.952 33.2925Z" fill="white"/>
<path d="M25.4601 36.6727C26.0411 35.1224 24.778 34.0803 23.8938 32.8858C22.5802 31.1322 22.8076 30.2681 24.9548 29.7852C26.7737 29.404 27.9863 28.4636 28.921 26.8625C29.982 25.058 31.043 25.0326 32.0788 26.8625C33.0387 28.5399 34.3271 29.404 36.1712 29.8106C38.1417 30.2427 38.4954 31.2593 37.1565 32.7588C35.8681 34.2328 35.3881 35.7832 35.565 37.7147C35.7418 39.6971 34.9081 40.2562 33.0387 39.5446C31.5735 38.9855 30.2599 38.528 28.6179 39.2396C25.7885 40.4849 25.3085 40.0021 25.4601 36.6727Z" fill="white"/>
<path d="M64.4396 36.7235C64.9701 35.3003 63.9849 34.2074 63.1007 33.0637C61.5597 31.1068 61.7871 30.2681 64.1365 29.7598C65.9301 29.3531 67.0416 28.362 67.9763 26.8371C69.0626 25.058 70.1236 25.0326 71.1341 26.8625C72.0941 28.5653 73.4077 29.3786 75.2266 29.8106C77.197 30.2681 77.5255 31.2593 76.2118 32.7588C74.8982 34.2583 74.3424 35.8086 74.6203 37.8164C74.8729 39.6208 73.913 40.307 72.2457 39.57C70.5531 38.833 68.9616 38.5026 67.2437 39.4429C65.1975 40.5866 64.1618 39.2904 64.4649 37.4351C64.4649 37.2572 64.4396 37.1047 64.4396 36.7235Z" fill="white"/>
</svg>
