<svg width="100" height="100" viewBox="0 0 100 100" fill="none" xmlns="http://www.w3.org/2000/svg">
<circle cx="50" cy="50" r="50" fill="#01565B"/>
<path d="M75.9884 41.8019C75.9623 46.6965 76.1972 51.6173 74.8399 56.4329C71.5772 68.143 64.112 75.8006 52.7055 79.5636C50.5913 80.2478 48.5031 80.1162 46.4672 79.2478C33.9905 73.9059 26.3687 64.5379 24.5155 50.9858C23.6803 44.9071 24.124 38.6441 24.0718 32.4865C24.0457 31.1181 24.8287 30.3287 26.1599 30.276C34.2515 29.9076 41.299 26.6972 47.7984 22.1185C49.9126 20.6185 50.0953 20.6185 52.2879 22.1711C58.1347 26.3025 64.4514 29.2498 71.6294 30.0918C72.2297 30.1708 72.8301 30.1971 73.4565 30.2234C75.2575 30.3024 75.9884 31.0129 75.9884 32.8286C76.0145 35.8548 75.9884 38.8283 75.9884 41.8019ZM47.2241 54.7488C45.3448 52.8278 43.5177 50.9595 41.6644 49.1174C40.4899 47.9333 39.2892 47.8543 38.3495 48.7753C37.4359 49.6963 37.5664 50.9331 38.7149 52.1173C40.8553 54.3014 43.0217 56.4593 45.1621 58.6171C46.7282 60.1959 47.6679 60.2223 49.234 58.6434C53.2015 54.6435 57.169 50.6437 61.1364 46.6438C61.4236 46.3544 61.7107 46.0912 61.9195 45.7754C62.5198 44.8544 62.4415 43.9334 61.6585 43.144C60.8754 42.3545 59.9619 42.3282 59.0483 42.9071C58.6829 43.1177 58.3957 43.4861 58.0825 43.8018C54.4805 47.4333 50.9045 51.0384 47.2241 54.7488Z" fill="white"/>
</svg>
