<svg width="100" height="100" viewBox="0 0 100 100" fill="none" xmlns="http://www.w3.org/2000/svg">
<circle cx="50" cy="50" r="50" fill="#01565B"/>
<path d="M37.415 59.7464C36.9848 58.5251 36.6741 57.4714 36.244 56.4657C36.1245 56.1783 35.5987 55.9389 35.2402 55.9389C32.8982 55.891 30.5323 55.9149 28.1902 55.9149C27.7123 55.9149 27.2104 55.891 26.7802 55.7233C25.9199 55.3881 25.4419 54.6697 25.5853 53.7358C25.7526 52.7061 26.3979 52.1074 27.4733 52.1074C29.7914 52.1074 32.0857 52.1074 34.4038 52.1074C34.834 52.1074 35.2641 52.1074 35.6704 52.1074C35.8855 50.7904 36.1006 49.617 36.3157 48.276C35.8616 48.276 35.4314 48.276 35.0252 48.276C31.8706 48.276 28.7399 48.276 25.5853 48.276C25.1074 48.276 24.6055 48.2281 24.1753 48.0605C23.2911 47.7252 22.8848 46.9829 23.0282 46.0489C23.2194 44.9474 23.9364 44.4445 25.0596 44.4445C29.0506 44.4445 33.0177 44.4206 37.0087 44.4685C37.893 44.4685 38.4426 44.2051 39.0162 43.5106C43.1267 38.6734 48.3604 36.9014 54.4306 38.6016C60.429 40.2778 63.9421 44.5164 64.9219 50.6706C65.854 56.6094 62.8189 62.5721 57.609 65.4935C52.3992 68.439 45.9228 67.8882 41.2387 64.1765C40.7846 63.8173 40.1155 63.6018 39.5419 63.6018C35.0491 63.5539 30.5562 63.5778 26.0394 63.5778C25.7526 63.5778 25.4897 63.5778 25.203 63.5778C23.8647 63.506 22.9565 62.6918 23.0043 61.5663C23.0521 60.4408 23.8647 59.7703 25.2269 59.7703C28.6443 59.7464 32.0857 59.7703 35.5031 59.7703C36.1006 59.7464 36.698 59.7464 37.415 59.7464ZM50.3201 56.6573C52.1841 56.6812 54.0721 55.2684 54.1199 53.4005C54.1438 51.9398 54.9324 51.2693 55.8406 50.503C56.1751 50.2156 56.5336 49.9522 56.8204 49.6409C57.5373 48.8746 57.5851 47.7731 56.9638 47.0308C56.2946 46.2166 55.1953 46.0968 54.2872 46.7913C53.618 47.2942 53.0684 47.9407 52.3753 48.3957C51.9451 48.6831 51.3238 48.8986 50.8219 48.8507C48.6472 48.6112 46.6397 50.2635 46.4963 52.4906C46.3529 54.7176 48.1214 56.6333 50.3201 56.6573Z" fill="white"/>
<path d="M61.9824 33.5249C62.2692 33.046 62.5321 32.6149 62.8428 32.136C61.9346 31.5613 61.0504 31.0105 60.214 30.4358C58.0392 28.9511 57.4896 26.5086 58.8279 24.2576C59.2819 23.4673 59.7838 22.7011 60.3095 21.9348C61.6718 20.019 64.1094 19.4204 66.1168 20.6177C69.1758 22.4855 72.187 24.4252 75.1743 26.4128C77.0384 27.658 77.5163 30.1724 76.417 32.1599C75.939 33.022 75.3894 33.8841 74.8158 34.6743C73.4058 36.614 70.9682 37.1408 68.8651 35.9435C67.9331 35.4167 67.0489 34.818 66.0929 34.1954C65.7345 34.7222 65.4477 35.1772 65.1131 35.6801C66.0929 36.7816 67.1206 37.8353 68.0287 38.9847C78.3289 52.1074 70.7531 71.8154 54.335 74.6411C48.4082 75.6708 42.9594 74.4735 37.9408 71.1928C37.1282 70.666 36.6741 69.9715 36.9131 68.9897C37.1521 68.0558 37.8213 67.5051 38.7294 67.5529C39.3268 67.5769 39.9243 67.9361 40.4501 68.2713C49.9377 74.3059 62.5321 70.5942 67.2162 60.369C72.3543 49.138 65.1848 36.0153 53.0206 34.3391C48.456 33.7165 44.2499 34.6743 40.3784 37.1169C40.2111 37.2127 40.0438 37.3324 39.8765 37.4521C38.8967 38.0268 37.7974 37.8353 37.2238 36.9971C36.5785 36.0872 36.7697 34.9856 37.7735 34.2912C40.2111 32.567 42.9116 31.4176 45.8272 30.8189C51.2282 29.6934 56.3424 30.5076 61.1938 33.0939C61.4089 33.2375 61.6479 33.3573 61.9824 33.5249Z" fill="white"/>
</svg>
