<svg width="100" height="100" viewBox="0 0 100 100" fill="none" xmlns="http://www.w3.org/2000/svg">
<circle cx="50" cy="50" r="50" fill="#01565B"/>
<path d="M37.1941 60.3258C38.2372 59.2613 39.0989 58.4006 40.0513 57.4267C35.3346 51.538 33.6565 44.8565 35.5613 37.4502C36.9446 32.0824 40.0513 27.847 44.632 24.7667C53.9295 18.4929 66.311 20.2142 73.7263 28.753C80.8922 36.9972 80.7108 49.6581 73.4542 57.7438C65.9255 66.1466 52.5916 68.0945 42.7272 60.054C41.8428 60.96 40.9357 61.866 39.7565 63.089C39.938 63.2022 40.4368 63.3608 40.777 63.7005C41.6841 64.6065 41.7067 65.4672 40.8223 66.3505C36.8312 70.3594 32.8175 74.3683 28.8037 78.3545C27.9419 79.2152 27.0802 79.2152 26.2185 78.3545C24.6765 76.8597 23.1572 75.3422 21.6605 73.802C20.7761 72.8961 20.7761 72.058 21.6832 71.1294C25.6516 67.1432 29.6427 63.157 33.6338 59.1934C34.5409 58.2874 35.3799 58.2874 36.3097 59.1707C36.5591 59.5104 36.8086 59.8728 37.1941 60.3258ZM56.9002 58.378C65.3132 58.378 72.207 51.538 72.207 43.1578C72.2297 34.687 65.3586 27.8017 56.9002 27.8017C48.4871 27.8017 41.5934 34.6417 41.5934 43.0219C41.5707 51.4927 48.4417 58.378 56.9002 58.378Z" fill="white"/>
<path d="M68.8055 43.1804C68.7828 49.6807 63.4084 55.0033 56.8321 54.9806C50.2559 54.958 44.9495 49.5675 44.9949 42.9313C45.0402 36.431 50.4373 31.1538 57.0135 31.1991C63.5218 31.2217 68.8281 36.6122 68.8055 43.1804ZM55.1541 45.8757C53.8161 44.4941 52.6143 43.2031 51.3444 41.98C50.5734 41.21 49.6209 41.21 48.9179 41.8894C48.1923 42.5916 48.1696 43.5655 48.9633 44.3808C50.596 46.0569 52.2514 47.7103 53.9295 49.341C54.6552 50.0658 55.6529 50.0884 56.3559 49.3863C59.2132 46.5778 62.0478 43.7467 64.8597 40.9155C65.608 40.1681 65.5627 39.1715 64.8597 38.4921C64.1114 37.7673 63.1589 37.8352 62.2746 38.7412C59.9615 41.0288 57.6485 43.3616 55.1541 45.8757Z" fill="white"/>
</svg>
